<svg width="40" height="41" viewBox="0 0 40 41" fill="none" xmlns="http://www.w3.org/2000/svg">
<path d="M36.6667 5.5H26.6667C24.8986 5.5 23.2029 6.20238 21.9526 7.45262C20.7024 8.70286 20 10.3986 20 12.1667V35.5C20 34.1739 20.5268 32.9021 21.4645 31.9645C22.4021 31.0268 23.6739 30.5 25 30.5H36.6667V5.5Z" stroke="#078AD1" stroke-width="2" stroke-linecap="round" stroke-linejoin="round"/>
<path d="M3.33398 5.5H13.334C15.1021 5.5 16.7978 6.20238 18.048 7.45262C19.2983 8.70286 20.0007 10.3986 20.0007 12.1667V35.5C20.0007 34.1739 19.4739 32.9021 18.5362 31.9645C17.5985 31.0268 16.3267 30.5 15.0007 30.5H3.33398V5.5Z" stroke="#078AD1" stroke-width="2" stroke-linecap="round" stroke-linejoin="round"/>
</svg>
