<svg width="17" height="16" viewBox="0 0 17 16" fill="none" xmlns="http://www.w3.org/2000/svg">
<g clip-path="url(#clip0_114_1610)">
<path d="M14.8476 7.36629L8.7209 13.493C7.97033 14.2435 6.95235 14.6652 5.8909 14.6652C4.82944 14.6652 3.81146 14.2435 3.0609 13.493C2.31033 12.7424 1.88867 11.7244 1.88867 10.663C1.88867 9.6015 2.31033 8.58352 3.0609 7.83295L9.18756 1.70629C9.68794 1.20591 10.3666 0.924805 11.0742 0.924805C11.7819 0.924805 12.4605 1.20591 12.9609 1.70629C13.4613 2.20666 13.7424 2.88532 13.7424 3.59295C13.7424 4.30059 13.4613 4.97925 12.9609 5.47962L6.82756 11.6063C6.57738 11.8565 6.23805 11.997 5.88423 11.997C5.53041 11.997 5.19108 11.8565 4.9409 11.6063C4.69071 11.3561 4.55015 11.0168 4.55015 10.663C4.55015 10.3091 4.69071 9.96981 4.9409 9.71962L10.6009 4.06629" stroke="white" stroke-width="2" stroke-linecap="round" stroke-linejoin="round"/>
</g>
<defs>
<clipPath id="clip0_114_1610">
<rect width="16" height="16" fill="white" transform="translate(0.554688)"/>
</clipPath>
</defs>
</svg>
