<svg width="40" height="40" viewBox="0 0 40 40" fill="none" xmlns="http://www.w3.org/2000/svg">
<g filter="url(#filter0_b_31_2511)">
<circle cx="20" cy="20" r="20" fill="#F1F1F1"/>
<circle cx="20" cy="20" r="19.5" stroke="url(#paint0_linear_31_2511)" stroke-miterlimit="10" stroke-linecap="round" stroke-linejoin="round"/>
</g>
<path d="M27 21C27.5523 21 28 20.5523 28 20C28 19.4477 27.5523 19 27 19V21ZM12.2929 19.2929C11.9024 19.6834 11.9024 20.3166 12.2929 20.7071L18.6569 27.0711C19.0474 27.4616 19.6805 27.4616 20.0711 27.0711C20.4616 26.6805 20.4616 26.0474 20.0711 25.6569L14.4142 20L20.0711 14.3431C20.4616 13.9526 20.4616 13.3195 20.0711 12.9289C19.6805 12.5384 19.0474 12.5384 18.6569 12.9289L12.2929 19.2929ZM27 19H13V21H27V19Z" fill="#9B9B9B"/>
<defs>
<filter id="filter0_b_31_2511" x="-15.276" y="-15.276" width="70.5519" height="70.5519" filterUnits="userSpaceOnUse" color-interpolation-filters="sRGB">
<feFlood flood-opacity="0" result="BackgroundImageFix"/>
<feGaussianBlur in="BackgroundImage" stdDeviation="7.63798"/>
<feComposite in2="SourceAlpha" operator="in" result="effect1_backgroundBlur_31_2511"/>
<feBlend mode="normal" in="SourceGraphic" in2="effect1_backgroundBlur_31_2511" result="shape"/>
</filter>
<linearGradient id="paint0_linear_31_2511" x1="3.27015" y1="14.5533" x2="18.2924" y2="40.971" gradientUnits="userSpaceOnUse">
<stop stop-color="white" stop-opacity="0.64"/>
<stop offset="1" stop-color="white" stop-opacity="0.24"/>
</linearGradient>
</defs>
</svg>
